<svg width="24" height="20" viewBox="0 0 24 20" fill="none" xmlns="http://www.w3.org/2000/svg">
  <g clip-path="url(#c)"><mask id="a" style="mask-type:luminance" maskUnits="userSpaceOnUse" x="0" y="0" width="24" height="20"><path d="M21.231 0H2.769C1.24 0 0 1.221 0 2.727v14.546C0 18.779 1.24 20 2.77 20h18.461C22.76 20 24 18.779 24 17.273V2.727C24 1.221 22.76 0 21.231 0Z" fill="#fff"/></mask><g mask="url(#a)"><path d="M19.57 0c1.55 0 2.326 0 2.918.297a2.77 2.77 0 0 1 1.21 1.192C24 2.072 24 2.836 24 4.363V10H0V4.363C0 2.836 0 2.072.302 1.489A2.77 2.77 0 0 1 1.512.297C2.104 0 2.88 0 4.43 0h15.14ZM9.462 1.818c-.637 0-1.154.509-1.154 1.137 0 .627.517 1.136 1.154 1.136h5.077c.637 0 1.153-.509 1.153-1.136 0-.628-.516-1.137-1.153-1.137H9.462Z" fill="#000" fill-opacity=".15"/><path d="M0 10h24v5.636c0 1.528 0 2.291-.302 2.875a2.77 2.77 0 0 1-1.21 1.192C21.896 20 21.12 20 19.57 20H4.43c-1.55 0-2.326 0-2.918-.297a2.77 2.77 0 0 1-1.21-1.192C0 17.927 0 17.164 0 15.636V10Z" fill="#000" fill-opacity=".35"/><mask id="b" style="mask-type:luminance" maskUnits="userSpaceOnUse" x="0" y="7" width="24" height="23"><circle cx="12" cy="18.182" r="10.909" fill="#fff"/></mask><g mask="url(#b)"><path d="M2.682 7.273v13.389h4.958L12 13.224h11.077V7.273H2.682Z" fill="#DB4437"/><path d="M.923 29.091h10.544l4.894-4.82v-3.61H7.64L.923 9.317v19.775Z" fill="#0F9D58"/><path d="M12 13.223l4.36 7.438-4.893 8.43h11.61V13.222H12Z" fill="#FFCD40"/><circle cx="12" cy="18.182" r="4.96" fill="#F1F1F1"/><circle cx="12" cy="18.186" r="3.967" fill="#4285F4"/></g></g></g><defs><clipPath id="c"><rect width="24" height="20" fill="#fff"/></clipPath></defs>
</svg>
